<svg width="265" height="84" viewBox="0 0 265 84" fill="none" xmlns="http://www.w3.org/2000/svg">
    <path d="M64.038 64.448C60.454 64.448 57.2327 63.7013 54.374 62.208C51.558 60.7147 49.3393 58.5813 47.718 55.808C46.0967 53.0347 45.286 49.7707 45.286 46.016C45.286 42.304 46.0967 39.0613 47.718 36.288C49.382 33.5147 51.622 31.3813 54.438 29.888C57.2967 28.3947 60.518 27.648 64.102 27.648C67.686 27.648 70.886 28.3947 73.702 29.888C76.5607 31.3813 78.8007 33.5147 80.422 36.288C82.086 39.0613 82.918 42.304 82.918 46.016C82.918 49.728 82.086 52.992 80.422 55.808C78.8007 58.5813 76.5607 60.7147 73.702 62.208C70.8433 63.7013 67.622 64.448 64.038 64.448ZM64.038 53.568C65.7873 53.568 67.238 52.928 68.39 51.648C69.5847 50.3253 70.182 48.448 70.182 46.016C70.182 43.584 69.5847 41.728 68.39 40.448C67.238 39.168 65.8087 38.528 64.102 38.528C62.3953 38.528 60.966 39.168 59.814 40.448C58.662 41.728 58.086 43.584 58.086 46.016C58.086 48.4907 58.6407 50.368 59.75 51.648C60.8593 52.928 62.2887 53.568 64.038 53.568ZM104.726 64.448C101.142 64.448 97.9202 63.7013 95.0615 62.208C92.2455 60.7147 90.0268 58.5813 88.4055 55.808C86.7842 53.0347 85.9735 49.7707 85.9735 46.016C85.9735 42.304 86.7842 39.0613 88.4055 36.288C90.0695 33.5147 92.3095 31.3813 95.1255 29.888C97.9842 28.3947 101.206 27.648 104.79 27.648C108.374 27.648 111.574 28.3947 114.39 29.888C117.248 31.3813 119.488 33.5147 121.11 36.288C122.774 39.0613 123.606 42.304 123.606 46.016C123.606 49.728 122.774 52.992 121.11 55.808C119.488 58.5813 117.248 60.7147 114.39 62.208C111.531 63.7013 108.31 64.448 104.726 64.448ZM104.726 53.568C106.475 53.568 107.926 52.928 109.078 51.648C110.272 50.3253 110.87 48.448 110.87 46.016C110.87 43.584 110.272 41.728 109.078 40.448C107.926 39.168 106.496 38.528 104.79 38.528C103.083 38.528 101.654 39.168 100.502 40.448C99.3495 41.728 98.7735 43.584 98.7735 46.016C98.7735 48.4907 99.3282 50.368 100.438 51.648C101.547 52.928 102.976 53.568 104.726 53.568ZM141.253 33.088C142.234 31.3813 143.621 30.0587 145.413 29.12C147.205 28.1387 149.317 27.648 151.749 27.648C154.608 27.648 157.189 28.3947 159.493 29.888C161.84 31.3813 163.674 33.5147 164.997 36.288C166.362 39.0613 167.045 42.304 167.045 46.016C167.045 49.728 166.362 52.992 164.997 55.808C163.674 58.5813 161.84 60.7147 159.493 62.208C157.189 63.7013 154.608 64.448 151.749 64.448C149.317 64.448 147.205 63.9787 145.413 63.04C143.621 62.0587 142.234 60.7147 141.253 59.008V64H128.709V16.64H141.253V33.088ZM154.309 46.016C154.309 43.6693 153.669 41.856 152.389 40.576C151.152 39.2533 149.616 38.592 147.781 38.592C145.946 38.592 144.389 39.2533 143.109 40.576C141.872 41.8987 141.253 43.712 141.253 46.016C141.253 48.3627 141.872 50.1973 143.109 51.52C144.389 52.8427 145.946 53.504 147.781 53.504C149.616 53.504 151.152 52.8427 152.389 51.52C153.669 50.1547 154.309 48.32 154.309 46.016ZM178.545 24.768C176.326 24.768 174.534 24.1707 173.169 22.976C171.846 21.7387 171.185 20.2027 171.185 18.368C171.185 16.4907 171.846 14.9333 173.169 13.696C174.534 12.4587 176.326 11.84 178.545 11.84C180.721 11.84 182.47 12.4587 183.793 13.696C185.158 14.9333 185.841 16.4907 185.841 18.368C185.841 20.2027 185.158 21.7387 183.793 22.976C182.47 24.1707 180.721 24.768 178.545 24.768ZM184.753 28.096V64H172.209V28.096H184.753ZM226.201 45.632C226.201 46.6133 226.137 47.5947 226.009 48.576H202.265C202.393 50.5387 202.926 52.0107 203.865 52.992C204.846 53.9307 206.083 54.4 207.577 54.4C209.667 54.4 211.161 53.4613 212.057 51.584H225.433C224.878 54.0587 223.79 56.2773 222.169 58.24C220.59 60.16 218.585 61.6747 216.153 62.784C213.721 63.8933 211.033 64.448 208.089 64.448C204.547 64.448 201.39 63.7013 198.617 62.208C195.886 60.7147 193.731 58.5813 192.153 55.808C190.617 53.0347 189.849 49.7707 189.849 46.016C189.849 42.2613 190.617 39.0187 192.153 36.288C193.689 33.5147 195.822 31.3813 198.553 29.888C201.326 28.3947 204.505 27.648 208.089 27.648C211.63 27.648 214.766 28.3733 217.497 29.824C220.227 31.2747 222.361 33.3653 223.897 36.096C225.433 38.784 226.201 41.9627 226.201 45.632ZM213.401 42.496C213.401 40.96 212.889 39.7653 211.865 38.912C210.841 38.016 209.561 37.568 208.025 37.568C206.489 37.568 205.23 37.9947 204.249 38.848C203.267 39.6587 202.627 40.8747 202.329 42.496H213.401ZM246.63 64.448C243.387 64.448 240.486 63.9147 237.926 62.848C235.409 61.7387 233.403 60.2453 231.91 58.368C230.459 56.448 229.649 54.2933 229.478 51.904H241.638C241.809 53.056 242.342 53.952 243.238 54.592C244.134 55.232 245.243 55.552 246.566 55.552C247.59 55.552 248.401 55.3387 248.998 54.912C249.595 54.4853 249.894 53.9307 249.894 53.248C249.894 52.352 249.403 51.6907 248.422 51.264C247.441 50.8373 245.819 50.368 243.558 49.856C240.998 49.344 238.865 48.768 237.158 48.128C235.451 47.488 233.958 46.4427 232.678 44.992C231.441 43.5413 230.822 41.5787 230.822 39.104C230.822 36.9707 231.398 35.0507 232.55 33.344C233.702 31.5947 235.387 30.208 237.606 29.184C239.867 28.16 242.577 27.648 245.734 27.648C250.427 27.648 254.118 28.8 256.806 31.104C259.494 33.408 261.051 36.4373 261.478 40.192H250.15C249.937 39.04 249.425 38.1653 248.614 37.568C247.846 36.928 246.801 36.608 245.478 36.608C244.454 36.608 243.665 36.8 243.11 37.184C242.598 37.568 242.342 38.1013 242.342 38.784C242.342 39.6373 242.833 40.2987 243.814 40.768C244.795 41.1947 246.374 41.6427 248.55 42.112C251.153 42.6667 253.307 43.2853 255.014 43.968C256.763 44.6507 258.278 45.76 259.558 47.296C260.881 48.7893 261.542 50.8373 261.542 53.44C261.542 55.5307 260.923 57.408 259.686 59.072C258.491 60.736 256.763 62.0587 254.502 63.04C252.283 63.9787 249.659 64.448 246.63 64.448Z"
          fill="#4C5DFF"/>
    <path d="M5 23C5 20.7909 6.79086 19 9 19H24.8214H34.7321H35.5765C39.0528 19 40.8744 23.1289 38.531 25.6965L32.3214 32.5L24.8908 40.7356C24.1619 41.5435 23.1354 42.0195 22.0479 42.054L9.7176 42.4455C8.62099 42.4803 7.55822 42.0631 6.77809 41.2917L6.18742 40.7076C5.42759 39.9562 5 38.932 5 37.8634V23Z"
          fill="#4C5DFF"/>
    <path d="M16.1237 42.46C13.9281 39.0204 15.2238 34.4355 18.895 32.6539C22.0117 31.1414 25.7672 32.2056 27.6271 35.1283L40.192 54.8731C42.7078 58.8266 39.8679 64 35.1818 64C31.9504 64 28.939 62.3634 27.1811 59.652L21.7879 51.3333L16.1237 42.46Z"
          fill="#4C5DFF"/>
    <path d="M5 38H19V58C19 61.3137 16.3137 64 13 64H11C7.68629 64 5 61.3137 5 58V38Z" fill="#4C5DFF"/>
</svg>