<svg width="551" height="164" viewBox="0 0 551 164" fill="none" xmlns="http://www.w3.org/2000/svg">
    <rect width="551" height="164" rx="20" fill="black" />
    <path
        d="M144.038 104.448C140.454 104.448 137.233 103.701 134.374 102.208C131.558 100.715 129.339 98.5813 127.718 95.808C126.097 93.0347 125.286 89.7707 125.286 86.016C125.286 82.304 126.097 79.0613 127.718 76.288C129.382 73.5147 131.622 71.3813 134.438 69.888C137.297 68.3947 140.518 67.648 144.102 67.648C147.686 67.648 150.886 68.3947 153.702 69.888C156.561 71.3813 158.801 73.5147 160.422 76.288C162.086 79.0613 162.918 82.304 162.918 86.016C162.918 89.728 162.086 92.992 160.422 95.808C158.801 98.5813 156.561 100.715 153.702 102.208C150.843 103.701 147.622 104.448 144.038 104.448ZM144.038 93.568C145.787 93.568 147.238 92.928 148.39 91.648C149.585 90.3253 150.182 88.448 150.182 86.016C150.182 83.584 149.585 81.728 148.39 80.448C147.238 79.168 145.809 78.528 144.102 78.528C142.395 78.528 140.966 79.168 139.814 80.448C138.662 81.728 138.086 83.584 138.086 86.016C138.086 88.4907 138.641 90.368 139.75 91.648C140.859 92.928 142.289 93.568 144.038 93.568ZM184.726 104.448C181.142 104.448 177.92 103.701 175.062 102.208C172.246 100.715 170.027 98.5813 168.406 95.808C166.784 93.0347 165.974 89.7707 165.974 86.016C165.974 82.304 166.784 79.0613 168.406 76.288C170.07 73.5147 172.31 71.3813 175.126 69.888C177.984 68.3947 181.206 67.648 184.79 67.648C188.374 67.648 191.574 68.3947 194.39 69.888C197.248 71.3813 199.488 73.5147 201.11 76.288C202.774 79.0613 203.606 82.304 203.606 86.016C203.606 89.728 202.774 92.992 201.11 95.808C199.488 98.5813 197.248 100.715 194.39 102.208C191.531 103.701 188.31 104.448 184.726 104.448ZM184.726 93.568C186.475 93.568 187.926 92.928 189.078 91.648C190.272 90.3253 190.87 88.448 190.87 86.016C190.87 83.584 190.272 81.728 189.078 80.448C187.926 79.168 186.496 78.528 184.79 78.528C183.083 78.528 181.654 79.168 180.502 80.448C179.35 81.728 178.774 83.584 178.774 86.016C178.774 88.4907 179.328 90.368 180.438 91.648C181.547 92.928 182.976 93.568 184.726 93.568ZM221.253 73.088C222.234 71.3813 223.621 70.0587 225.413 69.12C227.205 68.1387 229.317 67.648 231.749 67.648C234.608 67.648 237.189 68.3947 239.493 69.888C241.84 71.3813 243.674 73.5147 244.997 76.288C246.362 79.0613 247.045 82.304 247.045 86.016C247.045 89.728 246.362 92.992 244.997 95.808C243.674 98.5813 241.84 100.715 239.493 102.208C237.189 103.701 234.608 104.448 231.749 104.448C229.317 104.448 227.205 103.979 225.413 103.04C223.621 102.059 222.234 100.715 221.253 99.008V104H208.709V56.64H221.253V73.088ZM234.309 86.016C234.309 83.6693 233.669 81.856 232.389 80.576C231.152 79.2533 229.616 78.592 227.781 78.592C225.946 78.592 224.389 79.2533 223.109 80.576C221.872 81.8987 221.253 83.712 221.253 86.016C221.253 88.3627 221.872 90.1973 223.109 91.52C224.389 92.8427 225.946 93.504 227.781 93.504C229.616 93.504 231.152 92.8427 232.389 91.52C233.669 90.1547 234.309 88.32 234.309 86.016ZM258.545 64.768C256.326 64.768 254.534 64.1707 253.169 62.976C251.846 61.7387 251.185 60.2027 251.185 58.368C251.185 56.4907 251.846 54.9333 253.169 53.696C254.534 52.4587 256.326 51.84 258.545 51.84C260.721 51.84 262.47 52.4587 263.793 53.696C265.158 54.9333 265.841 56.4907 265.841 58.368C265.841 60.2027 265.158 61.7387 263.793 62.976C262.47 64.1707 260.721 64.768 258.545 64.768ZM264.753 68.096V104H252.209V68.096H264.753ZM306.201 85.632C306.201 86.6133 306.137 87.5947 306.009 88.576H282.265C282.393 90.5387 282.926 92.0107 283.865 92.992C284.846 93.9307 286.083 94.4 287.577 94.4C289.667 94.4 291.161 93.4613 292.057 91.584H305.433C304.878 94.0587 303.79 96.2773 302.169 98.24C300.59 100.16 298.585 101.675 296.153 102.784C293.721 103.893 291.033 104.448 288.089 104.448C284.547 104.448 281.39 103.701 278.617 102.208C275.886 100.715 273.731 98.5813 272.153 95.808C270.617 93.0347 269.849 89.7707 269.849 86.016C269.849 82.2613 270.617 79.0187 272.153 76.288C273.689 73.5147 275.822 71.3813 278.553 69.888C281.326 68.3947 284.505 67.648 288.089 67.648C291.63 67.648 294.766 68.3733 297.497 69.824C300.227 71.2747 302.361 73.3653 303.897 76.096C305.433 78.784 306.201 81.9627 306.201 85.632ZM293.401 82.496C293.401 80.96 292.889 79.7653 291.865 78.912C290.841 78.016 289.561 77.568 288.025 77.568C286.489 77.568 285.23 77.9947 284.249 78.848C283.267 79.6587 282.627 80.8747 282.329 82.496H293.401ZM326.63 104.448C323.387 104.448 320.486 103.915 317.926 102.848C315.409 101.739 313.403 100.245 311.91 98.368C310.459 96.448 309.649 94.2933 309.478 91.904H321.638C321.809 93.056 322.342 93.952 323.238 94.592C324.134 95.232 325.243 95.552 326.566 95.552C327.59 95.552 328.401 95.3387 328.998 94.912C329.595 94.4853 329.894 93.9307 329.894 93.248C329.894 92.352 329.403 91.6907 328.422 91.264C327.441 90.8373 325.819 90.368 323.558 89.856C320.998 89.344 318.865 88.768 317.158 88.128C315.451 87.488 313.958 86.4427 312.678 84.992C311.441 83.5413 310.822 81.5787 310.822 79.104C310.822 76.9707 311.398 75.0507 312.55 73.344C313.702 71.5947 315.387 70.208 317.606 69.184C319.867 68.16 322.577 67.648 325.734 67.648C330.427 67.648 334.118 68.8 336.806 71.104C339.494 73.408 341.051 76.4373 341.478 80.192H330.15C329.937 79.04 329.425 78.1653 328.614 77.568C327.846 76.928 326.801 76.608 325.478 76.608C324.454 76.608 323.665 76.8 323.11 77.184C322.598 77.568 322.342 78.1013 322.342 78.784C322.342 79.6373 322.833 80.2987 323.814 80.768C324.795 81.1947 326.374 81.6427 328.55 82.112C331.153 82.6667 333.307 83.2853 335.014 83.968C336.763 84.6507 338.278 85.76 339.558 87.296C340.881 88.7893 341.542 90.8373 341.542 93.44C341.542 95.5307 340.923 97.408 339.686 99.072C338.491 100.736 336.763 102.059 334.502 103.04C332.283 103.979 329.659 104.448 326.63 104.448Z"
        fill="white" />
    <path
        d="M352.509 104.448C350.888 104.448 349.544 103.957 348.477 102.976C347.453 101.952 346.941 100.693 346.941 99.2C346.941 97.7067 347.453 96.4693 348.477 95.488C349.544 94.464 350.888 93.952 352.509 93.952C354.088 93.952 355.389 94.464 356.413 95.488C357.437 96.4693 357.949 97.7067 357.949 99.2C357.949 100.693 357.437 101.952 356.413 102.976C355.389 103.957 354.088 104.448 352.509 104.448ZM380.91 104.576C377.497 104.576 374.425 103.829 371.694 102.336C368.963 100.8 366.809 98.6453 365.23 95.872C363.694 93.0987 362.926 89.8987 362.926 86.272C362.926 82.6453 363.715 79.4453 365.294 76.672C366.915 73.8987 369.113 71.7653 371.886 70.272C374.659 68.736 377.753 67.968 381.166 67.968C384.579 67.968 387.673 68.736 390.446 70.272C393.219 71.7653 395.395 73.8987 396.974 76.672C398.595 79.4453 399.406 82.6453 399.406 86.272C399.406 89.8987 398.574 93.0987 396.91 95.872C395.289 98.6453 393.07 100.8 390.254 102.336C387.481 103.829 384.366 104.576 380.91 104.576ZM380.91 96.768C382.531 96.768 384.046 96.384 385.454 95.616C386.905 94.8053 388.057 93.6107 388.91 92.032C389.763 90.4533 390.19 88.5333 390.19 86.272C390.19 82.9013 389.294 80.32 387.502 78.528C385.753 76.6933 383.598 75.776 381.038 75.776C378.478 75.776 376.323 76.6933 374.574 78.528C372.867 80.32 372.014 82.9013 372.014 86.272C372.014 89.6427 372.846 92.2453 374.51 94.08C376.217 95.872 378.35 96.768 380.91 96.768ZM414.939 74.048C416.091 72.1707 417.584 70.6987 419.419 69.632C421.296 68.5653 423.429 68.032 425.819 68.032V77.44H423.451C420.635 77.44 418.501 78.1013 417.051 79.424C415.643 80.7467 414.939 83.0507 414.939 86.336V104H405.979V68.544H414.939V74.048ZM445.742 67.968C448.387 67.968 450.712 68.5013 452.718 69.568C454.723 70.592 456.302 71.936 457.454 73.6V68.544H466.478V104.256C466.478 107.541 465.816 110.464 464.494 113.024C463.171 115.627 461.187 117.675 458.542 119.168C455.896 120.704 452.696 121.472 448.942 121.472C443.907 121.472 439.768 120.299 436.526 117.952C433.326 115.605 431.512 112.405 431.086 108.352H439.982C440.451 109.973 441.454 111.253 442.99 112.192C444.568 113.173 446.467 113.664 448.686 113.664C451.288 113.664 453.4 112.875 455.022 111.296C456.643 109.76 457.454 107.413 457.454 104.256V98.752C456.302 100.416 454.702 101.803 452.654 102.912C450.648 104.021 448.344 104.576 445.742 104.576C442.755 104.576 440.024 103.808 437.55 102.272C435.075 100.736 433.112 98.5813 431.661 95.808C430.253 92.992 429.549 89.7707 429.549 86.144C429.549 82.56 430.253 79.3813 431.661 76.608C433.112 73.8347 435.054 71.7013 437.486 70.208C439.96 68.7147 442.712 67.968 445.742 67.968ZM457.454 86.272C457.454 84.096 457.027 82.24 456.174 80.704C455.32 79.1253 454.168 77.9307 452.718 77.12C451.267 76.2667 449.71 75.84 448.046 75.84C446.382 75.84 444.846 76.2453 443.438 77.056C442.03 77.8667 440.878 79.0613 439.982 80.64C439.128 82.176 438.702 84.0107 438.702 86.144C438.702 88.2773 439.128 90.1547 439.982 91.776C440.878 93.3547 442.03 94.5707 443.438 95.424C444.888 96.2773 446.424 96.704 448.046 96.704C449.71 96.704 451.267 96.2987 452.718 95.488C454.168 94.6347 455.32 93.44 456.174 91.904C457.027 90.3253 457.454 88.448 457.454 86.272Z"
        fill="#6A7283" />
    <path
        d="M85 63C85 60.7909 86.7909 59 89 59H104.821H114.732H115.576C119.053 59 120.874 63.1289 118.531 65.6965L112.321 72.5L104.891 80.7356C104.162 81.5435 103.135 82.0195 102.048 82.054L89.7176 82.4455C88.621 82.4803 87.5582 82.0631 86.7781 81.2917L86.1874 80.7076C85.4276 79.9562 85 78.932 85 77.8634V63Z"
        fill="white" />
    <path
        d="M96.1237 82.46C93.9281 79.0204 95.2238 74.4355 98.895 72.6539C102.012 71.1414 105.767 72.2056 107.627 75.1283L120.192 94.8731C122.708 98.8266 119.868 104 115.182 104C111.95 104 108.939 102.363 107.181 99.652L101.788 91.3333L96.1237 82.46Z"
        fill="white" />
    <path d="M85 78H99V98C99 101.314 96.3137 104 93 104H91C87.6863 104 85 101.314 85 98V78Z" fill="white" />
</svg>
